<?xml version="1.0" encoding="utf-8"?>
<!-- Generator: Adobe Illustrator 26.0.1, SVG Export Plug-In . SVG Version: 6.00 Build 0)  -->
<svg version="1.1" id="Layer_1" xmlns="http://www.w3.org/2000/svg" xmlns:xlink="http://www.w3.org/1999/xlink" x="0px" y="0px"
	 viewBox="0 0 640 480" style="enable-background:new 0 0 640 480;" xml:space="preserve">
<style type="text/css">
	.st0{fill:#156444;stroke:#00FF00;stroke-miterlimit:10;}
	.st1{fill:#FFFFFF;}
	.st2{font-family:'Pristina-Regular';}
	.st3{font-size:98.1449px;}
</style>
<path class="st0" d="M185.54,211.87c3.96-1.18,9-2.23,14.89-2.44c1.97-0.07,3.82-0.04,5.55,0.06c-7.11,0.55-12.56,2.15-16.08,3.44
	c-3.31,1.22-7.01,1.9-9.49,4.92c-3.46,4.21-5.75,7.61-6.49,8.73c-3.67,5.53-7.51,11-9.53,18.58c-1.67,6.26-0.09,5.21-2.24,17.09
	c-1.28,7.04-3.09,13.99-3.77,16.6c-1.83,6.99-3.62,8.6-3.07,12.48c0.46,3.2,1.95,5.71,3.18,7.36c-0.88-3.99-0.4-7.03,0.11-8.9
	c0.25-0.91,0.92-2.54,4.16-8.13c2.19-3.76,4.25-6.65,4.93-7.55c4.72-6.23,10.48-5.81,21.1-12.1c3.93-2.33,13.35-8.7,20.75-19.32
	c7.8-11.21,4.36-15.56,12.62-31.71c3.43-6.71,8.26-16.02,16.54-25.52c16.46-18.87,33.06-23.02,31.96-25.52
	c-2.46-5.58-92.48-1.62-115.78,45.58c-14.03,28.43,1.06,62.57,4.77,62.43c1-0.04,0.99-2.24,1.05-2.78c0.24-2.49,0.3-5,0.52-7.49
	c0.32-3.72,0.84-7.42,1.66-11.07c1.03-4.61,2.51-9.15,4.48-13.52c0.43-0.95,0.87-1.89,1.34-2.82c0.67-1.33,1.08-2.38,1.13-2.51
	c0.83-1.91,1.79-7.12-0.5-14.71c-1.36-4.51-2.98-7.46-2.88-7.3c0.11,0.19,2.82,4.66,3.91,7.19c0.17,0.4,0.46,1.05,0.72,1.96
	c0.28,0.94,0.22,1.09,0.49,2.21c0.61,2.53,1.23,3.15,1.58,3.44c0.34,0.28,0.68,0.45,0.89,0.54c0.73-1.43,1.83-3.44,3.33-5.77
	c6.86-10.64,15.2-17.01,21.04-21.41c7.77-5.84,14.35-9.29,25.57-15.25c3.5-1.86,8.14-4.24,13.72-6.85
	c-9.05,6.47-16.79,11.06-22.19,14.06c-2.39,1.33-9.6,5.28-17.67,11.03c-2.85,2.03-7.37,5.41-10.51,11.1
	C186.43,209.57,185.88,210.93,185.54,211.87z"/>
<path class="st1" d="M232.73,287.5c30.26,4.09,39.51,17.98,58.46,21.96c0.7,0.15,8.05,0.97,16.23,0.84
	c50.66-0.76,91.98-39.43,93.83-37.23c1.34,1.59-20.93,21.11-43.52,34.71c-0.11,0.07-0.17,0.1-0.26,0.16
	c-17.82,10.67-35.15,13.21-39.3,13.76c-20.28,2.68-36.03-1.47-43.04-3.4c-12.16-3.35-7.85-4.35-30.45-13.07
	c0,0-31.09-12.6-55.38-11.9c-1.93,0.06-4,0.19-4,0.19c-14.4,0.89-23.39,4.21-23.42,4.12C161.86,297.57,194.94,282.4,232.73,287.5z"
	/>
<text transform="matrix(1.1942 0 0 1 220.8867 265.6201)" class="st1 st2 st3">Title</text>
</svg>
